#!OML:ASF I:\Actors\actors\Patient Classification 2\Patient 1\Session 1\actor1.ASF
:FULLY-SPECIFIED
:DEGREES
704
root -0.63073 18.7765 5.22392 5.41193 -8.19658 0.770046
lowerback 11.8759 -1.33683 -3.34604
upperback 0.454893 -2.17623 0.842658
thorax -6.02864 -0.96226 3.14048
lowerneck -23.4224 2.81076 0.247531
upperneck 4.89309 4.11848 -4.30051
head 5.26476 1.66062 -0.970997
rclavicle 5.96354e-015 6.21202e-015
rhumerus -49.9266 -13.2113 -68.5313
rradius 53.8256
rwrist 3.25871
rhand -8.76543 -40.1364
rfingers 7.12502
rthumb 17.1722 -69.3976
lclavicle 5.96354e-015 6.21202e-015
lhumerus -7.94532 -8.5176 81.3873
lradius 32.5181
lwrist -18.6495
lhand -9.75589 -20.9662
lfingers 7.12502
lthumb 16.2187 8.3754
rfemur 0 0 0
rtibia 0
rfoot 0 0
rtoes 0
lfemur -9.49447 0.437692 -15.046
ltibia 21.9326
lfoot -20.5487 14.7135
ltoes -55.6027
705
root -0.641465 18.773 5.24253 5.20069 -8.0045 0.743041
lowerback 11.5681 -1.27862 -3.32852
upperback 0.366413 -2.08612 0.868036
thorax -5.95626 -0.918925 3.13352
lowerneck -23.3399 2.71161 0.144263
upperneck 5.12852 3.99683 -4.03326
head 5.31618 1.61791 -0.88197
rclavicle -6.25551e-015 2.08724e-015
rhumerus -49.2934 -13.1311 -68.7028
rradius 53.4794
rwrist 3.40467
rhand -8.78661 -40.2446
rfingers 7.12502
rthumb 17.1518 -69.5076
lclavicle -6.25551e-015 2.08724e-015
lhumerus -9.54257 -8.52494 81.788
lradius 32.9446
lwrist -17.0716
lhand -10.1977 -20.94
lfingers 7.12502
lthumb 15.7933 8.43574
rfemur 0 0 0
rtibia 0
rfoot 0 0
rtoes 0
lfemur -9.15845 0.233776 -14.972
ltibia 21.8336
lfoot -20.5717 14.7
ltoes -55.5548
706
root -0.651733 18.7693 5.26427 4.97049 -7.90148 0.717552
lowerback 11.21 -1.19737 -3.28439
upperback 0.299483 -1.96225 0.858661
thorax -5.83729 -0.861603 3.06803
lowerneck -23.2536 2.56836 0.00838136
upperneck 5.43907 3.82236 -3.71633
head 5.38895 1.55172 -0.777304
rclavicle 2.78671e-014 -9.0944e-015
rhumerus -48.7285 -13.1277 -68.928
rradius 53.1884
rwrist 3.56252
rhand -8.78676 -40.322
rfingers 7.12502
rthumb 17.1517 -69.585
lclavicle 2.78671e-014 -9.0944e-015
lhumerus -11.1558 -8.90622 82.1008
lradius 33.4231
lwrist -15.1848
lhand -10.6993 -21.1556
lfingers 7.12502
lthumb 15.3102 8.25769
rfemur 0 0 0
rtibia 0
rfoot 0 0
rtoes 0
lfemur -8.78296 0.0252069 -14.9214
ltibia 21.7547
lfoot -20.6033 14.788
ltoes -55.6445
707
root -0.660014 18.7657 5.28555 4.73569 -7.84153 0.714775
lowerback 10.8714 -1.10009 -3.21637
upperback 0.243311 -1.81541 0.838592
thorax -5.72014 -0.793727 2.97588
lowerneck -23.1968 2.4052 -0.159768
upperneck 5.70244 3.63183 -3.43648
head 5.45207 1.47443 -0.68121
rclavicle -5.1858e-014 -6.80837e-015
rhumerus -48.1489 -13.1805 -69.1359
rradius 52.8632
rwrist 3.8233
rhand -8.64838 -40.1665
rfingers 7.12502
rthumb 17.2849 -69.4178
lclavicle -5.1858e-014 -6.80837e-015
lhumerus -12.751 -9.26918 82.4552
lradius 33.9142
lwrist -13.6995
lhand -11.259 -21.4375
lfingers 7.12502
lthumb 14.771 8.01611
rfemur 0 0 0
rtibia 0
rfoot 0 0
rtoes 0
lfemur -8.41663 -0.150216 -14.9093
ltibia 21.6985
lfoot -20.5997 14.9044
ltoes -55.8047
708
root -0.66633 18.7622 5.30521 4.57343 -7.7575 0.712592
lowerback 10.5444 -1.01286 -3.11402
upperback 0.126907 -1.67967 0.810793
thorax -5.67279 -0.729791 2.86072
lowerneck -23.0368 2.28012 -0.188207
upperneck 5.87883 3.4591 -3.26232
head 5.47769 1.40344 -0.640206
rclavicle 2.5109e-014 -1.90833e-014
rhumerus -47.6342 -13.2118 -69.3424
rradius 52.5238
rwrist 4.07635
rhand -8.55249 -40.0285
rfingers 7.12502
rthumb 17.3772 -69.2717
lclavicle 2.5109e-014 -1.90833e-014
lhumerus -14.4574 -9.52316 82.852
lradius 34.4798
lwrist -12.67
lhand -11.8423 -21.5836
lfingers 7.12502
lthumb 14.209 7.91038
rfemur 0 0 0
rtibia 0
rfoot 0 0
rtoes 0
lfemur -8.14933 -0.268903 -14.8959
ltibia 21.652
lfoot -20.6245 14.9215
ltoes -55.8464
709
root -0.673161 18.7583 5.32505 4.45852 -7.66275 0.665804
lowerback 10.1801 -0.922251 -2.9885
upperback -0.013499 -1.53527 0.801497
thorax -5.62937 -0.661592 2.75109
lowerneck -22.637 2.15245 -0.168394
upperneck 5.95179 3.26836 -3.1304
head 5.43586 1.32576 -0.624363
rclavicle -8.58501e-015 -4.27387e-015
rhumerus -47.1903 -13.2092 -69.5642
rradius 52.22
rwrist 4.28044
rhand -8.50119 -40.0099
rfingers 7.12502
rthumb 17.4265 -69.2487
lclavicle -8.58501e-015 -4.27387e-015
lhumerus -16.192 -9.77999 83.2706
lradius 35.0414
lwrist -11.716
lhand -12.3519 -21.7185
lfingers 7.12502
lthumb 13.7178 7.80936
rfemur 0 0 0
rtibia 0
rfoot 0 0
rtoes 0
lfemur -7.93139 -0.306212 -14.8236
ltibia 21.6032
lfoot -20.6867 14.8344
ltoes -55.8039
710
root -0.67954 18.7545 5.34711 4.29283 -7.62282 0.645656
lowerback 9.84 -0.81436 -2.92537
upperback -0.141945 -1.3753 0.810881
thorax -5.58513 -0.583889 2.69565
lowerneck -22.3172 2.03048 -0.257851
upperneck 6.13743 3.11304 -2.93907
head 5.43989 1.26445 -0.567053
rclavicle 1.4474e-014 1.39149e-015
rhumerus -46.7715 -13.1341 -69.8009
rradius 51.9302
rwrist 4.49997
rhand -8.3911 -39.9179
rfingers 7.12502
rthumb 17.5325 -69.1473
lclavicle 1.4474e-014 1.39149e-015
lhumerus -17.9245 -10.0331 83.7325
lradius 35.5813
lwrist -10.7311
lhand -12.7923 -21.9434
lfingers 7.12502
lthumb 13.2934 7.61259
rfemur 0 0 0
rtibia 0
rfoot 0 0
rtoes 0
lfemur -7.64424 -0.375092 -14.7898
ltibia 21.5546
lfoot -20.7952 14.8113
ltoes -55.7256
711
root -0.684691 18.7513 5.3712 4.07733 -7.60395 0.676645
lowerback 9.54538 -0.704979 -2.89108
upperback -0.273266 -1.21941 0.799346
thorax -5.56855 -0.507033 2.63735
lowerneck -22.1434 1.85566 -0.525099
upperneck 6.44133 2.9212 -2.58699
head 5.49825 1.19024 -0.432515
rclavicle 1.24365e-014 -7.65321e-015
rhumerus -46.4434 -12.9904 -70.0603
rradius 51.7624
rwrist 4.85455
rhand -8.23328 -39.6749
rfingers 7.12502
rthumb 17.6844 -68.8907
lclavicle 1.24365e-014 -7.65321e-015
lhumerus -19.6729 -10.2697 84.211
lradius 36.1239
lwrist -9.78793
lhand -13.2038 -22.0529
lfingers 7.12502
lthumb 12.8968 7.52864
rfemur 0 0 0
rtibia 0
rfoot 0 0
rtoes 0
lfemur -7.29582 -0.549318 -14.8262
ltibia 21.5177
lfoot -20.9387 14.8709
ltoes -55.6194
712
root -0.689206 18.7479 5.39416 3.89992 -7.53957 0.694677
lowerback 9.21328 -0.602758 -2.81055
upperback -0.412305 -1.06757 0.778421
thorax -5.53904 -0.433779 2.54394
lowerneck -21.8259 1.66577 -0.651174
upperneck 6.60709 2.68328 -2.40484
head 5.49611 1.08671 -0.381052
rclavicle -1.00386e-014 4.27387e-015
rhumerus -46.2078 -12.8258 -70.3281
rradius 51.7288
rwrist 5.21714
rhand -7.94884 -39.343
rfingers 7.12502
rthumb 17.9581 -68.534
lclavicle -1.00386e-014 4.27387e-015
lhumerus -21.4558 -10.4532 84.7084
lradius 36.7277
lwrist -8.92476
lhand -13.4961 -22.049
lfingers 7.12502
lthumb 12.6149 7.55011
rfemur 0 0 0
rtibia 0
rfoot 0 0
rtoes 0
lfemur -6.99738 -0.726387 -14.8499
ltibia 21.4824
lfoot -21.0562 14.8822
ltoes -55.6096
713
root -0.691835 18.7432 5.41605 3.7289 -7.4645 0.652029
lowerback 8.89205 -0.503877 -2.6423
upperback -0.547281 -0.910709 0.770458
thorax -5.51185 -0.360441 2.41518
lowerneck -21.4249 1.50668 -0.672343
upperneck 6.70778 2.46251 -2.29471
head 5.46334 0.98999 -0.367802
rclavicle -1.60891e-014 -7.05686e-015
rhumerus -45.9973 -12.6111 -70.6221
rradius 51.618
rwrist 5.17305
rhand -8.06878 -38.8943
rfingers 7.12502
rthumb 17.8427 -68.0958
lclavicle -1.60891e-014 -7.05686e-015
lhumerus -23.258 -10.4477 85.226
lradius 37.4096
lwrist -8.17591
lhand -13.6212 -22.0336
lfingers 7.12502
lthumb 12.4944 7.57286
rfemur 0 0 0
rtibia 0
rfoot 0 0
rtoes 0
lfemur -6.71616 -0.79408 -14.8074
ltibia 21.4434
lfoot -21.0981 14.8636
ltoes -55.705
714
root -0.693516 18.7373 5.43896 3.50872 -7.43078 0.607375
lowerback 8.5998 -0.382482 -2.47792
upperback -0.655496 -0.725076 0.772644
thorax -5.47318 -0.273188 2.29672
lowerneck -21.1187 1.31007 -0.946217
upperneck 6.93781 2.22588 -1.87892
head 5.47923 0.900222 -0.217116
rclavicle -9.11925e-015 1.53064e-014
rhumerus -45.8015 -12.3978 -70.8889
rradius 51.4809
rwrist 5.1604
rhand -8.37672 -38.5296
rfingers 7.12502
rthumb 17.5463 -67.7578
lclavicle -9.11925e-015 1.53064e-014
lhumerus -25.0046 -10.3483 85.7865
lradius 38.0644
lwrist -7.44415
lhand -13.7734 -22.0118
lfingers 7.12502
lthumb 12.3476 7.60354
rfemur 0 0 0
rtibia 0
rfoot 0 0
rtoes 0
lfemur -6.37712 -0.836506 -14.7695
ltibia 21.4105
lfoot -21.1387 14.9074
ltoes -55.7666
715
root -0.696129 18.7314 5.46167 3.273 -7.40758 0.599031
lowerback 8.30747 -0.262202 -2.42391
upperback -0.762742 -0.552424 0.783888
thorax -5.43055 -0.188995 2.25279
lowerneck -20.823 1.13536 -1.13771
upperneck 7.26441 2.00533 -1.53741
head 5.53102 0.813134 -0.100905
rclavicle 3.18055e-015 -3.18055e-015
rhumerus -45.6743 -12.1231 -71.194
rradius 51.4848
rwrist 5.33726
rhand -8.08435 -38.6719
rfingers 7.12502
rthumb 17.8277 -67.8748
lclavicle 3.18055e-015 -3.18055e-015
lhumerus -26.785 -10.19 86.3352
lradius 38.7054
lwrist -6.61454
lhand -13.9091 -22.0865
lfingers 7.12502
lthumb 12.2167 7.53675
rfemur 0 0 0
rtibia 0
rfoot 0 0
rtoes 0
lfemur -6.01177 -0.905341 -14.7694
ltibia 21.3728
lfoot -21.2384 14.9175
ltoes -55.7412
716
root -0.698864 18.7255 5.48273 2.99904 -7.36554 0.595656
lowerback 8.08324 -0.141565 -2.38832
upperback -0.874232 -0.383341 0.788018
thorax -5.43028 -0.105385 2.21405
lowerneck -20.4446 0.971068 -1.20105
upperneck 7.58387 1.78026 -1.34883
head 5.57158 0.715814 -0.0546209
rclavicle -3.02028e-014 3.57812e-015
rhumerus -45.6143 -11.8622 -71.5375
rradius 51.4658
rwrist 5.37288
rhand -7.86058 -38.8282
rfingers 7.12502
rthumb 18.043 -68.0113
lclavicle -3.02028e-014 3.57812e-015
lhumerus -28.5366 -9.8894 86.8366
lradius 39.3032
lwrist -5.84111
lhand -13.9406 -22.1761
lfingers 7.12502
lthumb 12.1864 7.44895
rfemur 0 0 0
rtibia 0
rfoot 0 0
rtoes 0
lfemur -5.60418 -0.936923 -14.7691
ltibia 21.312
lfoot -21.2947 14.8708
ltoes -55.7423
